<?xml version="1.0" standalone="no"?>
<svg viewBox="0 0 200 200" xmlns="http://www.w3.org/2000/svg">
  <path fill="#9a81a2" d="M35.6,-52.2C48.8,-46.9,64.2,-41.6,67,-31.7C69.8,-21.8,60.2,-7.3,58.8,9.1C57.4,25.4,64.3,43.6,58.3,50.6C52.4,57.7,33.5,53.7,17,59.1C0.5,64.5,-13.5,79.3,-23.3,77.4C-33.1,75.5,-38.7,56.9,-41.3,42.3C-43.9,27.6,-43.5,16.9,-51,3.7C-58.5,-9.4,-73.9,-25.1,-74.8,-38.8C-75.8,-52.6,-62.4,-64.5,-47.6,-69.1C-32.7,-73.7,-16.3,-71.1,-2.6,-67.1C11.2,-63.1,22.3,-57.6,35.6,-52.2Z" transform="translate(100 100)" />
</svg>
